# xmcd
# 
# Track frame offsets:
#     150
#     37802
#     103833
#     135746
#     177021
#     210680
# 
# Disc length: 3694
# 
# Revision: 1
# Processed by: cddbd v1.5.2PL0 Copyright (c) Steve Scherf et al.
# Submitted via: BonkEnc v1.0.8
# 
DISCID=4b0e6c06
DTITLE=Herbie Hancock - [1977.02.16] Herbie Hancock with Jaco Pastorius - Chicago
DYEAR=1977
DGENRE=Fusion
TTITLE0=Cantaloupe Island
TTITLE1=Hang Up Your Hang Ups
TTITLE2=Maiden Voyage
TTITLE3=Jaco Bass Solo
TTITLE4=People Music
TTITLE5=Chameleon
EXTD=YEAR: 1977
EXTT0=
EXTT1=
EXTT2=
EXTT3=
EXTT4=
EXTT5=
PLAYORDER=
